<svg width="22" height="17" viewBox="0 0 22 17" fill="none" xmlns="http://www.w3.org/2000/svg">
<path d="M11.75 16.25V11.75H14.75L11 7.25L7.25 11.75H10.25V16.25H6.5V16.2125C6.374 16.22 6.254 16.25 6.125 16.25C4.63316 16.25 3.20242 15.6574 2.14752 14.6025C1.09263 13.5476 0.5 12.1168 0.5 10.625C0.5 7.739 2.6825 5.387 5.483 5.0645C5.72853 3.78094 6.41367 2.62305 7.42056 1.79C8.42745 0.956944 9.69317 0.500792 11 0.5C12.307 0.500731 13.5729 0.956829 14.5801 1.78987C15.5872 2.6229 16.2726 3.78082 16.5185 5.0645C19.319 5.387 21.4985 7.739 21.4985 10.625C21.4985 12.1168 20.9059 13.5476 19.851 14.6025C18.7961 15.6574 17.3653 16.25 15.8735 16.25C15.7475 16.25 15.626 16.22 15.4985 16.2125V16.25H11.75Z" fill="#0D2341"/>
</svg>
